<svg id="Layer_1" data-name="Layer 1" xmlns="http://www.w3.org/2000/svg" viewBox="0 0 1623.89 928.35"><defs><style>.cls-1{fill:#f1f1f1;}.cls-2{fill:#fff;}.cls-3{fill:#575756;}</style></defs><rect class="cls-1" width="1623.89" height="928.35"/><rect class="cls-2" x="403.92" y="240.13" width="816.05" height="448.08"/><path class="cls-3" d="M737.65,514.6l-34.73,59.8c-2.73,4.7-.51,8.54,4.92,8.54h95.4V514.6Z"/><path class="cls-3" d="M739.92,433l-77.66,14.67,23.11,13.54L664.44,497c-2.74,4.68-2.75,12.35,0,17l32.94,56.5L742,494.4l23.1,13.54Z"/><path class="cls-3" d="M886.39,510.87l69.16-.12c5.43,0,7.63-3.85,4.9-8.55l-48.06-82.41-59,34.42Z"/><path class="cls-3" d="M814.77,550l51.79,59.69.06-26.78L908,583c5.43,0,12.06-3.85,14.73-8.57L955,517.52l-88.2-.19.06-26.78Z"/><path class="cls-3" d="M810.11,382.26,775.83,322.2c-2.7-4.72-7.13-4.74-9.86,0l-47.9,82.5L777.17,439Z"/><path class="cls-3" d="M879.52,425.19l26.3-74.53-23.31,13.19-20.38-36c-2.67-4.73-9.3-8.59-14.73-8.58l-65.4.11,43.41,76.78L802.1,409.31Z"/></svg>